<svg xml:space="preserve" viewBox="0 0 100 100" y="0" x="0" xmlns="http://www.w3.org/2000/svg" id="圖層_1" version="1.1" style="height: 100%; width: 100%; background: rgb(255, 255, 255);" width="134px" height="134px"><g class="ldl-scale" style="transform-origin: 50% 50%; transform: rotate(0deg) scale(0.86, 0.86);"><g class="ldl-ani"><g class="ldl-layer"><g class="ldl-ani" style="transform-origin: 50px 50px; transform: scale(0.91); animation: 0.502513s linear -0.335008s infinite normal forwards running breath-f21d0085-032e-4e50-bd04-3ac06817fb16;"><path fill="#333" d="M32.9 21.1L28 22.8c-1.4.5-1.8 2-.9 3l18.6 19.1L63.5 39 34.6 21.3c-.5-.3-1.1-.4-1.7-.2z" style="fill: rgb(255, 128, 231);"></path></g></g><g class="ldl-layer"><g class="ldl-ani" style="transform-origin: 50px 50px; transform: scale(0.91); animation: 0.502513s linear -0.41876s infinite normal forwards running breath-f21d0085-032e-4e50-bd04-3ac06817fb16;"><path fill="#333" d="M87.6 31.8c-2.4 0-4.9.6-7.2-.3-5.5-2.2-11.8-2.4-17.6-.4l-40.4 18-5-5.9c-1.7-2-6.1-2.6-8.4-1.1-1.2.8-1.9 2.6-1.3 4l5.4 13.1c.6 1.9 2.6 3.1 4.6 2.7l4.2-.8c2.4-.4 4.6-1 6.9-1.6 4.2-1.2 8.3-2.6 12.5-4 5.4-1.8 10.7-3.6 16.1-5.4 5.4-1.8 10.7-3.6 16.1-5.4l10.8-3.6 1.8-.6c2.6-.9 5-2.1 6.2-4.7.3-.7.5-1.4.3-2.1-.3-1.1-1.7-1.6-2.8-1.8-.9-.1-1.5-.1-2.2-.1z" style="fill: rgb(255, 128, 231);"></path></g></g><g class="ldl-layer"><g class="ldl-ani" style="transform-origin: 50px 50px; transform: scale(0.91); animation: 0.502513s linear -0.502513s infinite normal forwards running breath-f21d0085-032e-4e50-bd04-3ac06817fb16;"><path fill="#333" d="M50.2 77.2l-4.9 1.7c-1.4.5-2.7-.6-2.6-2.1l2.6-27.4c.1-.6.5-1.1 1.1-1.3l13.8-4.6c1.2-.4 2.4.8 2 2L51.5 76c-.2.6-.7 1-1.3 1.2z" style="fill: rgb(255, 128, 231);"></path></g></g>
<metadata xmlns:d="https://loading.io/stock/">
<d:name>airplane</d:name>
</metadata></g></g></svg>